# xmcd
#
# Track frame offsets:
#	150
#	17649
#	26107
#	59468
#	77259
#	112242
#	134451
#	152035
#	185131
#
# Disc length: 2780 seconds
#
# Revision: 1
# Processed by: cddbd v1.5.2PL0 Copyright (c) Steve Scherf et al.
# Submitted via: audiograbber 1.83.01
#
DISCID=770ada09
DTITLE=Martin Philippi Blues Band - Blues zum Gruss
DYEAR=1980
DGENRE=Blues
TTITLE0=Ramblin' Boy
TTITLE1=Mississippi River Blues
TTITLE2=In The Evening
TTITLE3=Tribute To Sonny Boy Williamson
TTITLE4=Worried Life Blues
TTITLE5=Baby Please Don't Go
TTITLE6=Careless Love
TTITLE7=Kansas City
TTITLE8=Christine
EXTD=
EXTT0=
EXTT1=
EXTT2=
EXTT3=
EXTT4=
EXTT5=
EXTT6=
EXTT7=
EXTT8=
PLAYORDER=
